<?xml version="1.0" encoding="iso-8859-1"?>
<!-- Uploaded to: SVG Repo, www.svgrepo.com, Generator: SVG Repo Mixer Tools -->
<svg height="800px" width="800px" version="1.1" id="Layer_1" xmlns="http://www.w3.org/2000/svg" xmlns:xlink="http://www.w3.org/1999/xlink" 
	 viewBox="0 0 511.999 511.999" xml:space="preserve">
<path style="fill:#22201A;" d="M437.018,74.981C388.667,26.628,324.38,0,255.999,0S123.333,26.628,74.981,74.981
	S0,187.619,0,255.999s26.629,132.666,74.981,181.019s112.639,74.981,181.019,74.981s132.667-26.628,181.019-74.981
	s74.981-112.638,74.981-181.019S485.371,123.333,437.018,74.981z M255.999,279.985c-13.246,0-23.984-10.738-23.984-23.985
	c0-13.246,10.738-23.985,23.984-23.985c13.246,0,23.985,10.738,23.985,23.985C279.985,269.246,269.246,279.985,255.999,279.985z"/>
<path style="fill:#302B21;" d="M232.015,255.999c0-13.246,10.738-23.985,23.984-23.985V0C187.62,0,123.333,26.628,74.981,74.981
	S0,187.619,0,255.999s26.629,132.666,74.981,181.019s112.639,74.981,181.019,74.981V279.985
	C242.754,279.985,232.015,269.246,232.015,255.999z"/>
<path style="fill:#8E5518;" d="M255.999,163.007c-51.358,0-92.992,41.634-92.992,92.992s41.634,92.992,92.992,92.992
	s92.992-41.634,92.992-92.992S307.358,163.007,255.999,163.007z M255.999,279.985c-13.246,0-23.984-10.738-23.984-23.985
	c0-13.246,10.738-23.985,23.984-23.985c13.246,0,23.985,10.738,23.985,23.985C279.985,269.246,269.246,279.985,255.999,279.985z"/>
<path style="fill:#302B21;" d="M255.999,426.187c-9.063,0-16.41-7.347-16.41-16.41s7.347-16.41,16.41-16.41
	c75.746,0,137.368-61.623,137.368-137.368c0-9.063,7.347-16.41,16.41-16.41s16.41,7.347,16.41,16.41
	C426.188,349.842,349.842,426.187,255.999,426.187z"/>
<path style="fill:#4A4238;" d="M102.222,272.41c-9.063,0-16.41-7.347-16.41-16.41c0-93.841,76.347-170.188,170.188-170.188
	c9.063,0,16.41,7.347,16.41,16.41s-7.347,16.41-16.41,16.41c-75.745,0-137.368,61.623-137.368,137.368
	C118.632,265.062,111.285,272.41,102.222,272.41z"/>
<g>
	<path style="fill:#302B21;" d="M255.999,484.243c-9.063,0-16.41-7.347-16.41-16.41c0-9.063,7.347-16.41,16.41-16.41
		c16.817,0,33.507-2.136,49.608-6.349c8.764-2.296,17.735,2.954,20.029,11.722c2.294,8.768-2.954,17.736-11.722,20.03
		C295.104,481.748,275.619,484.243,255.999,484.243z"/>
	<path style="fill:#302B21;" d="M368.894,451.698c-5.446,0-10.773-2.71-13.894-7.656c-4.836-7.664-2.543-17.8,5.122-22.636
		c57.17-36.07,91.301-97.904,91.301-165.407c0-9.063,7.347-16.41,16.41-16.41c9.063,0,16.41,7.347,16.41,16.41
		c0,39.244-10.131,77.955-29.296,111.948c-18.571,32.939-45.306,61.023-77.313,81.218
		C374.916,450.88,371.886,451.698,368.894,451.698z"/>
</g>
<g>
	<path style="fill:#4A4238;" d="M94.788,134.974c-3.767,0-7.554-1.29-10.644-3.927c-6.894-5.884-7.714-16.242-1.831-23.135
		c43.472-50.939,106.778-80.155,173.686-80.155c9.063,0,16.41,7.347,16.41,16.41s-7.347,16.41-16.41,16.41
		c-57.288,0-111.494,25.018-148.72,68.64C104.033,133.02,99.425,134.974,94.788,134.974z"/>
	<path style="fill:#4A4238;" d="M44.166,272.41c-9.063,0-16.41-7.347-16.41-16.41c0-25.308,4.117-50.175,12.238-73.914
		c2.934-8.576,12.261-13.153,20.839-10.214c8.575,2.934,13.149,12.264,10.214,20.839c-6.949,20.311-10.471,41.605-10.471,63.289
		C60.576,265.062,53.229,272.41,44.166,272.41z"/>
</g>
<path style="fill:#C97A2E;" d="M232.015,255.999c0-13.246,10.738-23.985,23.985-23.985v-69.007
	c-51.358,0-92.992,41.634-92.992,92.992s41.634,92.992,92.992,92.992v-69.007C242.754,279.985,232.015,269.246,232.015,255.999z"/>
</svg>