<svg width="40" height="40" viewBox="0 0 40 40" fill="none" xmlns="http://www.w3.org/2000/svg">
<circle cx="20" cy="20" r="19.75" stroke="white" stroke-width="0.5"/>
<path d="M16.933 11.0178C16.9137 11.0262 16.8826 11.0529 16.8662 11.074L16.835 11.1134L16.8232 13.1625C16.8098 15.4283 16.8039 15.2764 16.9033 15.3256C16.9316 15.3383 16.9702 15.3453 16.9969 15.3411C17.0221 15.3369 17.2656 15.2173 17.5373 15.0739L18.0302 14.8151L18.5973 14.8052C19.0056 14.7982 19.1778 14.7898 19.2105 14.7771C19.2684 14.7532 19.307 14.6984 19.307 14.6379C19.307 14.6013 19.0724 14.2103 18.2291 12.8405C17.567 11.766 17.132 11.0726 17.1008 11.0445C17.0474 10.9967 16.9939 10.9868 16.933 11.0178Z" fill="#F8F8FF"/>
<path d="M24.2554 11.9376C24.2079 11.9643 21.2208 14.7617 21.1748 14.825C21.1347 14.8798 21.1406 14.9572 21.1896 15.0078C21.2252 15.0472 21.2816 15.064 21.779 15.1991L22.3283 15.3481L22.744 15.7265C23.1642 16.109 23.2087 16.1414 23.2889 16.1231C23.3334 16.1118 23.3839 16.0682 23.4032 16.0232C23.4181 15.9852 23.4596 15.8418 23.9392 14.1077C24.0713 13.6323 24.245 13.0036 24.3267 12.7097C24.5048 12.0698 24.5078 12.0599 24.4796 12.0107C24.4306 11.9207 24.343 11.8926 24.2554 11.9376Z" fill="#F8F8FF"/>
<path d="M11.0568 15.289C10.9648 15.3425 10.941 15.4128 10.99 15.4958C11.0167 15.5408 13.9697 18.3705 14.0365 18.4141C14.0944 18.4521 14.1761 18.4465 14.2295 18.4C14.2696 18.3663 14.2904 18.3114 14.4329 17.8403L14.5903 17.3171L14.9896 16.9261C15.392 16.5295 15.4261 16.4873 15.4068 16.4114C15.395 16.3692 15.3489 16.3214 15.3014 16.3031C15.2792 16.2946 15.0208 16.2285 14.7269 16.1554C11.8556 15.4409 11.2008 15.2792 11.1474 15.2708C11.1177 15.2651 11.0865 15.2708 11.0568 15.289Z" fill="#F8F8FF"/>
<path d="M19.016 15.5155C17.4912 15.6547 16.0823 16.5408 15.3296 17.8291C15.0579 18.2932 14.8679 18.8459 14.7862 19.4099C14.7536 19.6349 14.7402 20.1581 14.7625 20.393C14.856 21.3986 15.2969 22.331 16.0289 23.075C16.8217 23.8823 17.8401 24.3619 19.01 24.48C19.2431 24.5039 19.7345 24.5067 19.9647 24.487C21.5072 24.3478 22.9132 23.4702 23.6703 22.1721C23.942 21.708 24.1321 21.1552 24.2137 20.5913C24.2464 20.3662 24.2598 19.8431 24.2375 19.6082C24.1425 18.5942 23.6971 17.6589 22.9533 16.9064C22.1694 16.116 21.1494 15.6393 19.9899 15.5211C19.7761 15.4986 19.2253 15.4958 19.016 15.5155Z" fill="#F8F8FF"/>
<path d="M24.4943 17.4802C24.4394 17.5126 24.4067 17.5801 24.4186 17.6364C24.423 17.6575 24.5507 17.8853 24.7007 18.1413L24.9738 18.6082L24.9842 19.1454C24.9916 19.5322 25.0006 19.6954 25.0139 19.7263C25.0392 19.7812 25.0971 19.8177 25.1609 19.8177C25.1995 19.8177 25.6122 19.5955 27.0583 18.7967C28.2401 18.1441 28.923 17.7587 28.9557 17.7264C28.9987 17.6828 29.0046 17.6701 28.9972 17.6209C28.9883 17.5548 28.9423 17.5028 28.877 17.4845C28.8502 17.4774 27.9595 17.4676 26.6856 17.4634C24.5893 17.4535 24.5388 17.4549 24.4943 17.4802Z" fill="#F8F8FF"/>
<path d="M11.9417 21.2045C10.7599 21.857 10.0769 22.2424 10.0443 22.2747C10.0012 22.3183 9.99529 22.331 10.0027 22.3802C10.0116 22.4463 10.0576 22.4984 10.123 22.5166C10.1497 22.5237 11.0405 22.5335 12.3099 22.5391C14.2443 22.5476 14.4537 22.5462 14.4953 22.5251C14.5532 22.497 14.5918 22.4294 14.5814 22.3718C14.5769 22.3479 14.4507 22.1172 14.2993 21.8598L14.0261 21.3929L14.0157 20.8557C14.0083 20.4689 13.9994 20.3058 13.986 20.2748C13.9608 20.22 13.9029 20.1834 13.839 20.1834C13.8004 20.1834 13.3877 20.4056 11.9417 21.2045Z" fill="#F8F8FF"/>
<path d="M24.7704 21.5997C24.7304 21.6348 24.7111 21.6883 24.5685 22.1608L24.4112 22.6812L24.0118 23.075C23.608 23.4716 23.5738 23.5138 23.5931 23.5897C23.605 23.6319 23.651 23.6797 23.6985 23.698C23.7386 23.7121 23.89 23.7515 25.7206 24.2057C26.2224 24.3309 26.8861 24.4955 27.1964 24.5728C27.8719 24.7416 27.8823 24.7444 27.9342 24.7177C28.0292 24.6713 28.0589 24.5883 28.0114 24.5053C27.9832 24.4603 25.0303 21.6306 24.9634 21.587C24.9055 21.549 24.8239 21.5546 24.7704 21.5997Z" fill="#F8F8FF"/>
<path d="M15.7066 23.8781C15.6666 23.8879 15.6161 23.9329 15.5968 23.9779C15.5819 24.0159 15.5404 24.1593 15.0608 25.8935C14.9287 26.3688 14.755 26.9975 14.6733 27.2914C14.4952 27.9314 14.4922 27.9412 14.5204 27.9904C14.5694 28.0804 14.657 28.1086 14.7446 28.0622C14.7921 28.0368 17.7792 25.2395 17.8252 25.1762C17.8653 25.1213 17.8594 25.044 17.8119 24.9933C17.7748 24.9554 17.7183 24.9371 17.2195 24.8021L16.6687 24.653L16.2693 24.2873C16.0496 24.0862 15.8566 23.9132 15.8403 23.9034C15.8031 23.8809 15.7452 23.8696 15.7066 23.8781Z" fill="#F8F8FF"/>
<path d="M21.9348 24.6811C21.9066 24.6952 21.6765 24.8147 21.4226 24.9469L20.9624 25.1874L20.3982 25.1973C19.9929 25.2043 19.8222 25.2113 19.7895 25.224C19.7316 25.2479 19.693 25.3028 19.693 25.3632C19.693 25.3998 19.9276 25.7908 20.7708 27.1606C21.4612 28.2816 21.8665 28.9271 21.9007 28.9581C21.9467 28.9988 21.96 29.0045 22.012 28.9974C22.0818 28.989 22.1367 28.9454 22.156 28.8835C22.1634 28.8582 22.1738 28.0143 22.1798 26.8119C22.1902 24.5742 22.1961 24.7247 22.0981 24.6769C22.0417 24.6488 21.9972 24.6502 21.9348 24.6811Z" fill="#F8F8FF"/>
</svg>
