<svg width="40" height="40" viewBox="0 0 40 40" fill="none" xmlns="http://www.w3.org/2000/svg">
<circle cx="20" cy="20" r="19.75" stroke="black" stroke-width="0.5"/>
<path d="M13.1269 9.59093C13.0255 9.93761 12.6872 10.2528 12.3152 10.3473C11.977 10.4419 11.6725 10.6625 11.6725 10.8831C11.6725 11.1037 11.977 11.3243 12.3152 11.4189C12.6872 11.5134 13.0255 11.8286 13.1269 12.1752C13.2284 12.4904 13.4652 12.774 13.7019 12.774C13.9387 12.774 14.1754 12.4904 14.2769 12.1752C14.3784 11.8286 14.7166 11.5134 15.0886 11.4189C15.4269 11.3243 15.7313 11.1037 15.7313 10.8831C15.7313 10.6625 15.4269 10.4419 15.0886 10.3473C14.7166 10.2528 14.3784 9.93761 14.2769 9.59093C14.0401 8.80303 13.3637 8.80303 13.1269 9.59093Z" fill="black"/>
<path d="M19.8238 13.751C15.968 14.7911 14.5 20.5 14.5 22C14.5 27 18 31.5 23.5 30.5C26 30.5 27.5 29.5 29.0236 28.5636C30.1735 27.5866 32.5 23 32 23.5H31.5H30C27.7704 23.5 25.9279 22.2649 24 20.5C22.1059 18.7036 21.6502 16.8711 21.887 14.6965C22.0222 13.2783 21.887 13.2153 19.8238 13.751ZM21.8193 19.8651C23.3413 22.1343 26.8927 24.1198 29.4633 24.1198C31 24.5 30.5 25 29.7677 25.2859C29.0236 26.9562 27.7045 28.1539 25.7089 29.0363C22.5296 30.423 18.5599 28.7862 17.5 27.5C14.7145 24.1198 15 22 15.5 20.5C16 19 17.2532 16.2723 18.9106 15.579L20.5 15L20.7032 16.9026C20.9061 17.9427 21.4134 19.2663 21.8193 19.8651Z" stroke="black" stroke-width="1.5"/>
<path d="M7.44466 17.1863C6.83585 17.8166 6.83585 17.8481 7.54612 18.5414L8.29023 19.2033L9.03433 18.5414C9.7446 17.8481 9.7446 17.8166 9.13579 17.1863C8.79757 16.8396 8.42552 16.5559 8.29023 16.5559C8.15493 16.5559 7.78288 16.8396 7.44466 17.1863Z" fill="black"/>
</svg>
